<?xml version="1.0" encoding="utf-8"?>
<svg height="48px" id="Layer_1" style="enable-background:new 0 0 48 48;" version="1.1" viewBox="0 0 48 48" width="48px" xml:space="preserve" xmlns="http://www.w3.org/2000/svg" fill="rgb(0,0,0,0.6)">
    <circle cx="24.279" cy="23.901" r="6.313" style="fill:none;stroke:#231F20;stroke-miterlimit:10;"/>
    <path d="M25.027,13.08c0,0.391-0.277,0.708-0.62,0.708l0,0c-0.343,0-0.62-0.317-0.62-0.708V9.731  c0-0.393,0.277-0.71,0.62-0.71l0,0c0.343,0,0.62,0.317,0.62,0.71V13.08z" style="fill:#231F20;"/>
    <path d="M25.027,38.46c0,0.393-0.277,0.71-0.62,0.71l0,0c-0.343,0-0.62-0.317-0.62-0.71v-3.349  c0-0.391,0.277-0.708,0.62-0.708l0,0c0.343,0,0.62,0.317,0.62,0.708V38.46z" style="fill:#231F20;"/>
    <path d="M35.552,24.329c-0.392,0-0.709-0.276-0.709-0.621l0,0c0-0.342,0.317-0.619,0.709-0.619h3.351  c0.391,0,0.708,0.277,0.708,0.619l0,0c0,0.345-0.317,0.621-0.708,0.621H35.552z" style="fill:#231F20;"/>
    <path d="M10.17,24.329c-0.391,0-0.708-0.276-0.708-0.621l0,0c0-0.342,0.317-0.619,0.708-0.619h3.351  c0.392,0,0.708,0.277,0.708,0.619l0,0c0,0.345-0.317,0.621-0.708,0.621H10.17z" style="fill:#231F20;"/>
    <path d="M32.506,16.486c-0.276,0.277-0.697,0.305-0.939,0.063l0,0c-0.241-0.241-0.213-0.663,0.063-0.939  l2.368-2.369c0.277-0.276,0.696-0.305,0.939-0.063l0,0c0.242,0.244,0.215,0.665-0.062,0.941L32.506,16.486z" style="fill:#231F20;"/>
    <path d="M14.56,34.435c-0.277,0.276-0.698,0.304-0.94,0.062l0,0c-0.243-0.241-0.214-0.661,0.062-0.939  l2.369-2.367c0.277-0.275,0.697-0.306,0.939-0.062l0,0c0.243,0.241,0.214,0.662-0.062,0.939L14.56,34.435z" style="fill:#231F20;"/>
    <path d="M31.63,32.323c-0.276-0.276-0.305-0.697-0.063-0.938l0,0c0.242-0.241,0.663-0.216,0.939,0.063  l2.369,2.366c0.277,0.278,0.305,0.698,0.062,0.939l0,0c-0.243,0.243-0.662,0.215-0.939-0.062L31.63,32.323z" style="fill:#231F20;"/>
    <path d="M13.682,14.377c-0.276-0.278-0.304-0.698-0.062-0.939l0,0c0.242-0.243,0.663-0.215,0.94,0.062  l2.368,2.368c0.277,0.277,0.306,0.698,0.062,0.939l0,0c-0.242,0.241-0.662,0.216-0.939-0.063L13.682,14.377z" style="fill:#231F20;"/>
</svg>